<mxfile host="app.diagrams.net" modified="2024-06-28T09:26:31.315Z" agent="Mozilla/5.0 (X11; Linux x86_64) AppleWebKit/537.36 (KHTML, like Gecko) Chrome/122.0.0.0 YaBrowser/24.4.0.0 Safari/537.36" version="24.6.4" etag="uvFm5DuXxLkXn2geU2-l" type="github">
  <diagram name="Страница — 1" id="eYpyqsQ_o7Lsl9lSVp5N">
    <mxGraphModel>
      <root>
        <mxCell id="0" />
        <mxCell id="1" parent="0" />
      </root>
    </mxGraphModel>
  </diagram>
</mxfile>
